<?xml version="1.0" encoding="utf-8"?>
<!-- Generator: Adobe Illustrator 22.1.0, SVG Export Plug-In . SVG Version: 6.00 Build 0)  -->
<svg version="1.1" id="facebook_x5F_icon" xmlns="http://www.w3.org/2000/svg" xmlns:xlink="http://www.w3.org/1999/xlink" x="0px"
	 y="0px" viewBox="0 0 100 100" style="enable-background:new 0 0 100 100;" xml:space="preserve">
<style type="text/css">
	.st0{fill:#5D6F34;}
</style>
<path id="facebook" class="st0" d="M88.3,0H11.7C5.2,0,0,5.2,0,11.7v76.6C0,94.8,5.2,100,11.7,100h76.6c6.5,0,11.7-5.2,11.7-11.7
	V11.7C100,5.2,94.8,0,88.3,0z M69.8,25.7h-9.8c-2.1,0-3.9,1.7-3.9,3.9v10.7h13.7l-2.2,13.7H56.1v34.5H41.8V54.1H30.2V40.3h11.5V29.6
	c0-10,8.2-18.2,18.2-18.2h9.8V25.7z"/>
</svg>
