<?xml version="1.0" encoding="utf-8"?>
<!-- Generator: Adobe Illustrator 22.1.0, SVG Export Plug-In . SVG Version: 6.00 Build 0)  -->
<svg version="1.1" id="Layer_1" xmlns="http://www.w3.org/2000/svg" xmlns:xlink="http://www.w3.org/1999/xlink" x="0px" y="0px"
	 viewBox="0 0 200 200" style="enable-background:new 0 0 200 200;" xml:space="preserve">
<style type="text/css">
	.st0{fill:#FFFFFF;stroke:#9ABE4A;stroke-width:3;stroke-miterlimit:10;}
	.st1{fill:#FFFFFF;stroke:#9ABD4B;stroke-width:3;stroke-miterlimit:10;}
	.st2{fill:#5D7132;}
	.st3{fill:#FFFFFF;stroke:#FFFFFF;stroke-width:6;stroke-linejoin:round;stroke-miterlimit:10;}
	.st4{fill:#676565;}
	.st5{fill:none;stroke:#9ABD4B;stroke-width:3;stroke-miterlimit:10;}
	.st6{fill:#D8AE58;}
	.st7{fill:#FFFFFF;}
	.st8{fill:#FFFFFF;stroke:#FFFFFF;stroke-width:6;stroke-miterlimit:10;}
	.st9{fill:none;}
	.st10{fill:#666666;}
	.st11{fill:none;stroke:#666666;stroke-width:2;stroke-linecap:round;stroke-linejoin:round;stroke-miterlimit:10;}
	.st12{fill:none;stroke:#666666;stroke-width:2;stroke-miterlimit:10;}
	.st13{fill:none;stroke:#666666;stroke-width:2.1;stroke-miterlimit:10;}
	.st14{fill:none;stroke:#D32027;stroke-width:2;stroke-linejoin:round;stroke-miterlimit:10;}
	.st15{fill:none;stroke:#D32027;stroke-linejoin:round;stroke-miterlimit:10;}
	.st16{fill:none;stroke:#D32027;stroke-width:2;stroke-linecap:round;stroke-linejoin:round;stroke-miterlimit:10;}
	.st17{fill:none;stroke:#D32027;stroke-miterlimit:10;}
</style>
<circle class="st0" cx="100" cy="100" r="98.5"/>
<g id="XMLID_257_">
	<circle id="XMLID_23_" class="st1" cx="102.1" cy="94.9" r="61.9"/>
	<g id="XMLID_222_">
		<path id="XMLID_225_" class="st2" d="M82.5,82.9h1.8l-6.9-14.3l-6.9,14.3h1.8l-1.8,3.8h1.8l-1.8,3.8h6v3.3c0,0.5,0.4,0.9,0.9,0.9
			l0,0c0.5,0,0.9-0.4,0.9-0.9v-3.3h6l-1.8-3.8h1.8L82.5,82.9z"/>
		<path id="XMLID_224_" class="st2" d="M78.3,90.4h6l-1.8-3.8h1.8l-1.8-3.8h1.8l-6.9-14.3v26.1l0,0c0.5,0,0.9-0.4,0.9-0.9V90.4z"/>
	</g>
	<path id="XMLID_43_" class="st3" d="M145.6,109c0,0-8.3-1-11.5,6.2c0,0-1.2,5-4.4,6.5c0,0,10.2-2.8,13.5-5.1c0,0,3.7-4.2,5.1-5.3"
		/>
	<g id="XMLID_217_">
		<path id="XMLID_220_" class="st2" d="M152.4,79.4h2.7L145,58.3l-10.1,21.2h2.7l-2.7,5.6h2.7l-2.7,5.6h8.9v4.8
			c0,0.7,0.6,1.3,1.3,1.3l0,0c0.7,0,1.3-0.6,1.3-1.3v-4.8h8.9l-2.7-5.6h2.7L152.4,79.4z"/>
		<path id="XMLID_219_" class="st2" d="M146.2,90.6h8.9l-2.7-5.6h2.7l-2.7-5.6h2.7L145,58.3v38.5l0,0c0.7,0,1.3-0.6,1.3-1.3V90.6z"
			/>
	</g>
	<g id="XMLID_212_">
		<path id="XMLID_216_" class="st2" d="M130.5,81h1.6l-5.9-12.4L120.2,81h1.6l-1.6,3.3h1.6l-1.6,3.3h5.2v2.8c0,0.4,0.3,0.7,0.7,0.7
			l0,0c0.4,0,0.7-0.3,0.7-0.7v-2.8h5.2l-1.6-3.3h1.6L130.5,81z"/>
		<path id="XMLID_215_" class="st2" d="M126.9,87.6h5.2l-1.6-3.3h1.6l-1.6-3.3h1.6l-5.9-12.4v22.5l0,0c0.4,0,0.7-0.3,0.7-0.7V87.6z"
			/>
	</g>
	<g id="XMLID_209_">
		<path id="XMLID_211_" class="st2" d="M63.8,80.2h2.3l-8.7-17.5l-8.7,17.5h2.3l-2.3,4.6h2.3l-2.3,4.6h7.6v4c0,0.6,0.5,1,1.1,1l0,0
			c0.6,0,1.1-0.5,1.1-1v-4h7.6l-2.3-4.6h2.3L63.8,80.2z"/>
		<path id="XMLID_210_" class="st2" d="M58.5,89.4h7.6l-2.3-4.6h2.3l-2.3-4.6h2.3l-8.7-17.5v31.8l0,0c0.6,0,1.1-0.5,1.1-1V89.4z"/>
	</g>
	<path id="XMLID_206_" class="st4" d="M74.3,96.4"/>
	<circle id="XMLID_205_" class="st5" cx="102.1" cy="94.9" r="61.9"/>
	<g id="XMLID_134_">
		<path id="XMLID_135_" class="st4" d="M39.7,128.1l-0.7-1.5l-9.5,4.6l-0.7-1.5l9.5-4.6l-0.7-1.5l1.6-0.8l2.2,4.5L39.7,128.1z"/>
		<path id="XMLID_149_" class="st4" d="M44.2,132.3l-10.6,6.3l-0.8-1.4l5-3l-0.9-1.5l-5,3l-0.8-1.4l10.6-6.3l0.8,1.4l-4.1,2.4
			l0.9,1.5l4.1-2.4L44.2,132.3z"/>
		<path id="XMLID_153_" class="st4" d="M38.9,141.2l-0.9-1.3l-2.5,1.4l-0.9-1.3l11.1-5.6l1,1.3l-8.9,8.7l-1-1.3L38.9,141.2z
			 M40.2,140l3.3-3l0,0l-3.9,2.2L40.2,140z"/>
		<path id="XMLID_156_" class="st4" d="M52.5,142.8l-9.2,8.1l-1.1-1.2l5.7-5l-6.4,4.2l-0.7-0.9l5-5.8l0,0l-5.7,5l-1.1-1.2l9.2-8.1
			l1.5,1.7l-4.8,5.6l0,0l6.2-4.1L52.5,142.8z"/>
		<path id="XMLID_180_" class="st4" d="M53.2,145.9l-2.1,2.2l1.2,1.2l-1.2,1.3l-1.2-1.2l-2.8,2.9L49,154l-1.2,1.3l-3-2.9l8.5-8.9
			l2.9,2.7l-1.2,1.3L53.2,145.9z"/>
		<path id="XMLID_182_" class="st4" d="M57,151.5l0.3-0.4c0.5-0.7,0.6-1.3,0.3-1.5c-0.3-0.3-0.8-0.2-1.2,0.3
			c-0.3,0.4-0.5,0.8-0.6,1.5l-0.3,3c-0.1,1.2-0.2,2-1.2,3.1c-1.1,1.4-2.6,1.4-3.6,0.6c-1-0.8-1.2-2.3-0.1-3.7l0.8-1l1.3,1.1
			l-0.7,0.9c-0.5,0.6-0.5,1.1-0.1,1.3c0.3,0.3,0.8,0.2,1.3-0.4c0.4-0.5,0.6-1,0.6-1.6l0.1-2.3c0.2-1.6,0.2-2.1,1.2-3.4
			c1.1-1.3,2.5-1.5,3.6-0.6c1.1,0.9,1.1,2.4,0.1,3.6l-0.5,0.7L57,151.5z"/>
		<path id="XMLID_199_" class="st4" d="M59.8,164.2l1.3-5c-0.2-0.1-0.4-0.2-0.4-0.3l-2.7,4.2l-1.4-0.9l6.6-10.4l2.3,1.5
			c1.3,0.8,1.1,2.6,0.1,4.2c-1,1.5-2.1,2.2-3.1,2.2l-1.3,5.4L59.8,164.2z M61.6,157.3l0.4,0.3c0.9,0.6,1.2,0.6,2.2-0.9
			c0.5-0.8,0.8-1.6,0.3-1.9l-0.9-0.6L61.6,157.3z"/>
		<path id="XMLID_203_" class="st4" d="M63.9,166.6l-1.4-0.8l5.9-10.8l1.4,0.8L63.9,166.6z"/>
		<path id="XMLID_218_" class="st4" d="M68.8,169l-1.6-0.7l3.3-12l1.6,0.7l-2.7,8.8l0,0l4.9-7.8l1.6,0.7L68.8,169z"/>
		<path id="XMLID_227_" class="st4" d="M77.6,161.2l-1,2.8l1.6,0.6l-0.6,1.6l-1.6-0.6l-1.4,3.8l2.4,0.9l-0.6,1.6l-3.9-1.4l4.2-11.5
			l3.7,1.4l-0.6,1.7L77.6,161.2z"/>
		<path id="XMLID_229_" class="st4" d="M81.6,173.5l-0.2-5.2c-0.2-0.1-0.4-0.1-0.5-0.1l-1.3,4.8l-1.6-0.4l3.3-11.9l2.7,0.7
			c1.5,0.4,1.8,2.1,1.3,4c-0.5,1.8-1.4,2.7-2.3,3l0.3,5.5L81.6,173.5z M81.4,166.4l0.5,0.1c1,0.3,1.4,0.2,1.8-1.5
			c0.3-0.9,0.3-1.7-0.3-1.9l-1-0.3L81.4,166.4z"/>
		<path id="XMLID_232_" class="st4" d="M91.2,172.5l-1.6-0.2l-0.7,2.8l-1.5-0.2l3.7-11.9l1.6,0.2l0.1,12.4l-1.6-0.2L91.2,172.5z
			 M91.2,170.7l0.2-4.4l0,0l-1.2,4.3L91.2,170.7z"/>
		<path id="XMLID_235_" class="st4" d="M100.3,163.8l-0.8,12.3l-1.6-0.1l-1.1-7.1l0,0l-0.5,7l-1.6-0.1l0.8-12.3l1.7,0.1l1.1,6.9l0,0
			l0.5-6.8L100.3,163.8z"/>
		<path id="XMLID_237_" class="st4" d="M104.6,167.3l0-1c0-0.4-0.3-1-0.8-1c-0.6,0-0.8,0.6-0.8,1l0.2,7.1c0,0.4,0.3,1,0.9,1
			c0.6,0,0.9-0.6,0.9-1.6l0-1.9l-0.9,0l0-1.8l2.4-0.1l0.1,3.8c0,1.7-0.7,3.2-2.3,3.2c-1.8,0-2.5-1.5-2.5-2.7l-0.2-7.1
			c0-1.2,0.6-2.8,2.4-2.8c1.7,0,2.4,1.5,2.5,2.7l0,1L104.6,167.3z"/>
		<path id="XMLID_239_" class="st4" d="M112,173.8l0.2,1.7l-3.8,0.4l-1.2-12.2l1.6-0.2l1,10.5L112,173.8z"/>
		<path id="XMLID_241_" class="st4" d="M113.7,164.6l0.5,3l1.6-0.3l0.3,1.7l-1.7,0.3l0.7,3.9l2.5-0.4l0.3,1.7l-4.1,0.7l-2-12.1
			l3.9-0.7l0.3,1.7L113.7,164.6z"/>
		<path id="XMLID_243_" class="st4" d="M123.2,173.3l-2.7-4.4c-0.2,0.1-0.4,0.1-0.5,0.1l1.2,4.8l-1.6,0.4l-3-11.9l2.7-0.7
			c1.5-0.4,2.6,0.9,3.1,2.8c0.4,1.8,0.2,3.1-0.5,3.8l3,4.7L123.2,173.3z M119.5,167.2l0.5-0.1c1-0.3,1.3-0.5,0.8-2.2
			c-0.2-1-0.6-1.7-1.2-1.5l-1,0.3L119.5,167.2z"/>
		<path id="XMLID_246_" class="st4" d="M126.4,163.1l-0.2-0.5c-0.3-0.8-0.8-1.1-1.1-1c-0.4,0.1-0.6,0.6-0.4,1.2
			c0.2,0.5,0.4,0.9,0.9,1.3l2.4,1.8c0.9,0.7,1.6,1.2,2,2.6c0.6,1.7-0.2,3-1.4,3.4c-1.3,0.4-2.6-0.2-3.2-1.8l-0.4-1.2l1.6-0.5
			l0.4,1.1c0.2,0.7,0.7,1,1.1,0.8c0.4-0.1,0.6-0.6,0.3-1.3c-0.2-0.6-0.6-1-1.1-1.4l-1.9-1.3c-1.3-1-1.7-1.3-2.3-2.9
			c-0.5-1.6,0.1-2.9,1.4-3.4c1.3-0.5,2.6,0.3,3.1,1.8l0.3,0.8L126.4,163.1z"/>
		<path id="XMLID_248_" class="st4" d="M136.9,165.1l-1.4,0.7l1,2.7l-1.4,0.7l-3.7-11.9l1.5-0.7l7.1,10.2l-1.5,0.7L136.9,165.1z
			 M135.9,163.6l-2.4-3.7l0,0l1.5,4.2L135.9,163.6z"/>
		<path id="XMLID_251_" class="st4" d="M139.4,156.9l-0.3-0.4c-0.4-0.7-1-1-1.3-0.8c-0.4,0.2-0.4,0.7-0.1,1.2
			c0.3,0.5,0.5,0.8,1.2,1.1l2.7,1.3c1.1,0.5,1.8,0.9,2.5,2.2c0.9,1.5,0.4,2.9-0.7,3.6c-1.1,0.7-2.6,0.4-3.5-1.2l-0.7-1.1l1.4-0.8
			l0.6,1c0.4,0.7,0.8,0.8,1.2,0.6c0.4-0.2,0.4-0.7,0.1-1.3c-0.3-0.6-0.8-0.9-1.3-1.2l-2.1-0.9c-1.4-0.7-2-0.9-2.8-2.3
			c-0.8-1.4-0.5-2.9,0.7-3.6c1.2-0.7,2.6-0.3,3.4,1.1l0.4,0.7L139.4,156.9z"/>
		<path id="XMLID_253_" class="st4" d="M144.2,153.7l-0.3-0.4c-0.5-0.7-1-0.9-1.4-0.7c-0.3,0.2-0.4,0.8,0,1.2c0.3,0.4,0.6,0.7,1.2,1
			l2.8,1.1c1.1,0.4,1.8,0.8,2.7,1.9c1,1.5,0.7,2.9-0.4,3.7c-1.1,0.8-2.5,0.6-3.5-0.9l-0.7-1l1.4-1l0.7,0.9c0.4,0.6,0.9,0.7,1.2,0.5
			c0.3-0.2,0.4-0.8,0-1.3c-0.4-0.5-0.8-0.8-1.4-1.1l-2.2-0.7c-1.5-0.6-2-0.7-3-2.1c-1-1.4-0.8-2.8,0.4-3.6c1.1-0.8,2.6-0.5,3.5,0.9
			l0.5,0.7L144.2,153.7z"/>
		<path id="XMLID_255_" class="st4" d="M149.7,148.3l4.5,5.5c0.8,1,1.2,2.6-0.1,3.7c-1.4,1.2-2.9,0.4-3.7-0.6l-4.5-5.5
			c-0.8-1-1.3-2.5,0.1-3.7C147.4,146.6,148.9,147.3,149.7,148.3z M148.4,149.3c-0.2-0.3-0.9-0.6-1.2-0.3c-0.4,0.4-0.2,1,0,1.3
			l4.5,5.4c0.3,0.3,0.9,0.7,1.3,0.3c0.4-0.3,0.1-1-0.1-1.3L148.4,149.3z"/>
		<path id="XMLID_259_" class="st4" d="M153.5,145.9l-0.7-0.7c-0.3-0.3-0.9-0.5-1.2-0.2c-0.4,0.4-0.1,1,0.1,1.3l5,5.1
			c0.3,0.3,0.9,0.5,1.3,0.1c0.3-0.3,0.1-1-0.2-1.2l-0.7-0.7l1.2-1.2l0.7,0.7c0.9,0.9,1.4,2.5,0.2,3.7c-1.3,1.3-2.8,0.7-3.7-0.2
			l-5-5.1c-0.9-0.9-1.4-2.4-0.2-3.7c1.2-1.2,2.8-0.6,3.7,0.3l0.7,0.7L153.5,145.9z"/>
		<path id="XMLID_261_" class="st4" d="M163.1,148.5l-1.1,1.2l-9.2-8.2l1.1-1.2L163.1,148.5z"/>
		<path id="XMLID_263_" class="st4" d="M164.1,142.8l-1,1.3l2.1,2l-1,1.2l-8.5-9.1l1-1.3l10.8,6.1l-1,1.3L164.1,142.8z M162.6,141.9
			l-3.8-2.3l0,0l3.1,3.1L162.6,141.9z"/>
		<path id="XMLID_266_" class="st4" d="M161.8,132.8l-1,1.4l8.7,6l-0.9,1.4l-8.7-6l-1,1.4l-1.4-1l2.8-4.1L161.8,132.8z"/>
		<path id="XMLID_268_" class="st4" d="M172.2,135.9l-0.8,1.4l-10.5-6.3l0.8-1.4L172.2,135.9z"/>
		<path id="XMLID_270_" class="st4" d="M166.7,125.6l6.3,3.3c1.1,0.6,2.1,1.9,1.4,3.4c-0.8,1.6-2.5,1.5-3.6,0.9l-6.3-3.3
			c-1.1-0.6-2.1-1.8-1.3-3.4C164,125,165.6,125,166.7,125.6z M166,127c-0.3-0.2-1-0.2-1.3,0.2c-0.3,0.5,0.2,1,0.5,1.2l6.3,3.2
			c0.4,0.2,1,0.3,1.3-0.2c0.2-0.4-0.3-1-0.6-1.1L166,127z"/>
		<path id="XMLID_273_" class="st4" d="M166.7,118.9l11.4,4.7l-0.6,1.5l-7.1-1.2l0,0l6.5,2.7l-0.6,1.5l-11.4-4.7l0.7-1.6l6.9,1.2
			l0,0l-6.3-2.6L166.7,118.9z"/>
	</g>
	<g id="XMLID_56_">
		<g>
			<path id="XMLID_472_" class="st4" d="M78.2,139.6H77l-0.2,1.7h-1.2l1.5-7.1h1.3l1.5,7.1h-1.3L78.2,139.6z M78,138.5l-0.4-2.6h0
				l-0.4,2.6H78z"/>
			<path id="XMLID_470_" class="st4" d="M85,134.1v7.1h-1.3l-1.3-4.1h0v4.1h-1.3v-7.1h1.3l1.2,4h0v-4H85z"/>
			<path id="XMLID_468_" class="st4" d="M89,136.2v-0.6c0-0.2-0.2-0.6-0.6-0.6c-0.4,0-0.6,0.4-0.6,0.6v4.1c0,0.2,0.2,0.6,0.6,0.6
				c0.5,0,0.7-0.3,0.7-0.9v-1.1h-0.7v-1h1.9v2.2c0,1-0.6,1.8-1.9,1.8c-1.4,0-1.9-0.9-1.9-1.6v-4.1c0-0.7,0.5-1.6,1.9-1.6
				c1.3,0,1.9,0.9,1.9,1.6v0.6H89z"/>
			<path id="XMLID_466_" class="st4" d="M94.7,140.2v1h-2.9v-7.1H93v6.1H94.7z"/>
			<path id="XMLID_464_" class="st4" d="M97.4,135.1v1.8h1.3v1h-1.3v2.3h1.9v1h-3.2v-7.1h3.1v1H97.4z"/>
			<path id="XMLID_461_" class="st4" d="M103.6,141.2l-1.2-2.9c-0.2,0-0.4,0-0.4,0v2.9h-1.3v-7.1h2.1c1.2,0,1.8,0.9,1.8,2
				c0,1.1-0.5,1.7-1.1,2.1l1.3,3.1H103.6z M102,137.3h0.4c0.8,0,1.1-0.1,1.1-1.1c0-0.6-0.1-1-0.6-1H102V137.3z"/>
			<path id="XMLID_459_" class="st4" d="M108.5,136.1v-0.3c0-0.5-0.3-0.8-0.6-0.8c-0.3,0-0.6,0.2-0.6,0.6c0,0.3,0.1,0.5,0.4,0.9
				l1.3,1.5c0.5,0.6,0.8,1,0.8,1.8c0,1-0.9,1.6-1.9,1.6c-1,0-1.9-0.6-1.9-1.6V139h1.3v0.7c0,0.4,0.2,0.7,0.6,0.7
				c0.3,0,0.6-0.2,0.6-0.7c0-0.4-0.2-0.7-0.4-1l-1.1-1.1c-0.7-0.8-1-1-1-2c0-1,0.8-1.6,1.9-1.6c1.1,0,1.8,0.6,1.8,1.6v0.5H108.5z"/>
			<path id="XMLID_457_" class="st4" d="M111.2,140h1.3v1.3h-1.3V140z"/>
			<path id="XMLID_454_" class="st4" d="M117.8,135.6v4.1c0,0.7-0.6,1.6-1.8,1.6c-1.4,0-1.9-0.9-1.9-1.6v-4.1c0-0.7,0.5-1.6,1.9-1.6
				C117.2,134,117.8,134.9,117.8,135.6z M116.5,135.6c0-0.2-0.2-0.6-0.6-0.6c-0.4,0-0.6,0.4-0.6,0.6v4.1c0,0.2,0.2,0.6,0.6,0.6
				c0.4,0,0.6-0.4,0.6-0.6V135.6z"/>
			<path id="XMLID_451_" class="st4" d="M122.1,141.2l-1.2-2.9c-0.2,0-0.4,0-0.4,0v2.9h-1.3v-7.1h2.1c1.2,0,1.8,0.9,1.8,2
				c0,1.1-0.5,1.7-1.1,2.1l1.3,3.1H122.1z M120.5,137.3h0.4c0.8,0,1.1-0.1,1.1-1.1c0-0.6-0.1-1-0.6-1h-0.8V137.3z"/>
			<path id="XMLID_449_" class="st4" d="M127.1,136.2v-0.6c0-0.2-0.2-0.6-0.6-0.6c-0.4,0-0.6,0.4-0.6,0.6v4.1c0,0.2,0.2,0.6,0.6,0.6
				c0.5,0,0.7-0.3,0.7-0.9v-1.1h-0.7v-1h1.9v2.2c0,1-0.6,1.8-1.9,1.8c-1.4,0-1.9-0.9-1.9-1.6v-4.1c0-0.7,0.5-1.6,1.9-1.6
				c1.3,0,1.9,0.9,1.9,1.6v0.6H127.1z"/>
		</g>
	</g>
	<g id="XMLID_1_">
		<g>
			<path id="XMLID_404_" class="st4" d="M82.7,56.5v1.9h1.4v1.1h-1.4v2.6h2.2v1.1h-3.6v-7.9h3.4v1.1H82.7z"/>
			<path id="XMLID_401_" class="st4" d="M89.1,57.6v-0.3c0-0.6-0.3-0.9-0.6-0.9c-0.4,0-0.6,0.3-0.6,0.6c0,0.3,0.1,0.6,0.4,1l1.4,1.6
				c0.6,0.6,0.9,1.1,0.9,2c0,1.1-1,1.8-2.1,1.8c-1.1,0-2.1-0.6-2.1-1.8v-0.8h1.4v0.7c0,0.5,0.3,0.7,0.6,0.7c0.4,0,0.6-0.3,0.6-0.7
				c0-0.4-0.2-0.7-0.5-1.1l-1.2-1.2c-0.7-0.9-1.1-1.1-1.1-2.2c0-1.1,0.9-1.8,2.1-1.8c1.2,0,2.1,0.7,2.1,1.8v0.6H89.1z"/>
			<path id="XMLID_399_" class="st4" d="M96.3,56.5h-1.5v6.8h-1.4v-6.8H92v-1.1h4.3V56.5z"/>
			<path id="XMLID_397_" class="st4" d="M97.1,61.9h1.4v1.4h-1.4V61.9z"/>
			<path id="XMLID_395_" class="st4" d="M103.4,55.3h1.4v7.9h-1.4v-6.8h-0.6v-0.8L103.4,55.3z"/>
			<path id="XMLID_392_" class="st4" d="M106.4,58.4c0-0.1,0-1,0-1.1c0-1.2,0.8-2.1,2.2-2.1c1.4,0,2.1,1,2.1,1.8c0,0,0,3.8,0,4
				c0,1.3-0.9,2.4-2.2,2.4c-1.3,0-2-1-2-1.8V61h1.4v0.6c0,0.3,0.2,0.6,0.6,0.6c0.5,0,0.7-0.6,0.7-1.2v-1.3c-0.2,0.2-0.5,0.4-1,0.4
				C107.1,60.2,106.4,59.4,106.4,58.4z M107.9,58.4c0,0.4,0.3,0.6,0.7,0.6c0.5,0,0.7-0.2,0.7-0.4V57c0-0.2-0.2-0.7-0.6-0.7
				c-0.6,0-0.8,0.3-0.8,1C107.9,57.4,107.9,58.3,107.9,58.4z"/>
			<path id="XMLID_388_" class="st4" d="M117,61c0,1.3-0.9,2.4-2.3,2.4c-1.4,0-2.3-1-2.3-2.4c0-1.1,0.6-1.7,1.3-2
				c-0.5-0.2-1-1-1-1.8c0-1.2,0.7-2,2-2c1.3,0,2.1,0.7,2.1,2c0,0.8-0.5,1.5-1,1.8C116.4,59.3,117,59.9,117,61z M115.5,61
				c0-0.7-0.2-1.3-0.8-1.4c-0.7,0.1-0.9,0.7-0.9,1.4c0,0.8,0.3,1.2,1,1.2C115.3,62.3,115.5,61.6,115.5,61z M114,57.3
				c0,0.4,0.2,0.8,0.7,1c0.5-0.2,0.7-0.6,0.7-1c0-0.6-0.2-1-0.7-1S114,56.8,114,57.3z"/>
			<path id="XMLID_385_" class="st4" d="M122.9,60.2c0,0.1,0,1,0,1.1c0,1.2-0.8,2.1-2.2,2.1c-1.4,0-2.1-1-2.1-1.8c0,0,0-3.8,0-4
				c0-1.3,0.8-2.4,2.1-2.4c1.4,0,2,1,2,1.8v0.5h-1.4V57c0-0.3-0.2-0.7-0.6-0.7c-0.5,0-0.7,0.6-0.7,1.2v1.2c0.2-0.2,0.5-0.4,1-0.4
				C122.3,58.4,122.9,59.3,122.9,60.2z M121.4,60.2c0-0.4-0.3-0.6-0.7-0.6c-0.4,0-0.7,0.2-0.7,0.4v1.6c0,0.2,0.2,0.6,0.6,0.6
				c0.5,0,0.8-0.3,0.8-1C121.4,61.2,121.4,60.3,121.4,60.2z"/>
		</g>
	</g>
	<g id="XMLID_194_">
		<circle id="XMLID_197_" class="st6" cx="102.2" cy="42.6" r="3.2"/>
		
			<ellipse id="XMLID_195_" transform="matrix(0.7714 -0.6364 0.6364 0.7714 -2.9146 73.4539)" class="st7" cx="100.8" cy="40.8" rx="0.6" ry="0.4"/>
	</g>
	<g id="XMLID_191_">
		<circle id="XMLID_193_" class="st6" cx="84.2" cy="46.8" r="3.2"/>
		
			<ellipse id="XMLID_192_" transform="matrix(0.7714 -0.6364 0.6364 0.7714 -9.6881 62.9987)" class="st7" cx="82.8" cy="45" rx="0.6" ry="0.4"/>
	</g>
	<g id="XMLID_188_">
		<circle id="XMLID_190_" class="st6" cx="119.5" cy="46.8" r="3.2"/>
		
			<ellipse id="XMLID_189_" transform="matrix(0.7714 -0.6364 0.6364 0.7714 -1.6268 85.4373)" class="st7" cx="118.1" cy="45" rx="0.6" ry="0.4"/>
	</g>
	<ellipse id="XMLID_187_" class="st7" cx="84.2" cy="47.8" rx="1.6" ry="0.8"/>
	<ellipse id="XMLID_186_" class="st7" cx="102.2" cy="43.7" rx="1.6" ry="0.8"/>
	<ellipse id="XMLID_185_" class="st7" cx="119.5" cy="47.8" rx="1.6" ry="0.8"/>
	<path id="XMLID_40_" class="st8" d="M112,87.8c0,0-2.3-1.2-3.4-1.3c0,0-9-8.5-11.1-9.7c0,0-5.5,8.9-7.9,9.6c0,0-0.7,0.8,2.2,1
		c0,0,2.7,0,2.9,0.3c0,0,0.9,0.4,0.9,0.9"/>
	<path id="XMLID_37_" class="st8" d="M73.5,89.9c0,0-4-2.5-10.4-2.8c0,0-1.9,0.4-3.4,3.5c0,0,0,0.5,0.9,1.1"/>
	<path id="XMLID_11_" class="st8" d="M57.1,104.5c-1.2-0.2-10.7,3.8-10.7,3.8c-19.1,12-26.6,10.2-26.6,10.2c0-4,7.2-15.5,7.2-15.5
		c3.8-4.7,1.6-7.8,1.6-7.8c-8.5-17.4-7.4-17.5-7.4-17.5c4.7-0.1,22.6,8.2,22.6,8.2c3.1,1.7,8.5,3.8,8.5,3.8l4.1,1.6
		c1.2,0.7,10.7,0.4,10.7,0.4c19.1-5.5,76.1-5.1,76.1-5.1l6.3,0.5c0,0,24.6,3,28.4,9.7c0,0-5.9,3.1-9.3,6.3c0,0,4.9-0.5,6.1-0.8
		l4.3-0.3c0,0,0.3,0.4-6.2,5.1c0,0-4.5,2.2-10.1,3.8l-5.9,1.3c-4.9,1.2-9.5,3.5-13.6,4.4c0,0-11.9,2.5-31.6,1.1
		c-19.7-1.4-13.5-2.2-28.9-5.9S66.8,106.1,57.1,104.5z"/>
	<path id="XMLID_12_" class="st8" d="M111.5,112.5c0,0-2.9,12.3-8.3,14c0,0-2.4-2.4-4.1-6.8c-0.6-1.5-1.1-3.2-1.4-5.2
		c0,0,0.2-2,1.8-2.1c0,0,2.6,0.9,3.8,0"/>
	<path id="XMLID_5_" class="st8" d="M79.3,109.7c0,0-3.3,5.1-7.9,8.2c0,0-2.3,2.4-3.3,2.2c-0.6-0.1-0.2-1.7-0.1-3.9
		c0,0-1.3-4.2-4.4-7c0,0-1.5-1.2,0-1.9c0,0,0.3,0.1,4-0.8"/>
	<polygon id="XMLID_403_" class="st9" points="95,136.1 101.2,136.1 101.2,136.1 95,136.1 	"/>
	<g id="XMLID_294_">
		<path class="st9" d="M48.8,108.1"/>
	</g>
	<g id="XMLID_114_">
		<path class="st9" d="M48.8,87.5"/>
	</g>
	<g id="XMLID_173_">
		<polygon class="st10" points="24,83.3 41.2,90.1 23.3,85.2 		"/>
	</g>
	<g id="XMLID_170_">
		<polygon class="st10" points="27.4,91.4 36.6,93.5 27.1,93.4 		"/>
	</g>
	<g id="XMLID_167_">
		<polygon class="st10" points="28.2,100 36.6,99.1 28.7,101.9 		"/>
	</g>
	<g id="XMLID_164_">
		<polygon class="st10" points="25.7,104.5 39.6,102.4 26.1,106.5 		"/>
	</g>
	<g id="XMLID_161_">
		<polygon class="st10" points="22.4,109.6 40.4,104.6 23.1,111.5 		"/>
	</g>
	<g id="XMLID_158_">
		<polygon class="st10" points="20,114.1 40.2,108.1 20.6,116 		"/>
	</g>
	<path id="XMLID_157_" class="st10" d="M167.9,95c0-0.3-0.2-0.6-0.5-0.7c-0.1,0-0.4-0.1-0.5-0.2c-0.3-0.1-0.6-0.1-0.8,0
		c-0.2,0-0.8,0.2-0.9,0.3c-0.5,0.3-0.5,0.3-0.8,0.8c-0.2,0.3-0.1,1,0.2,1.1c0.7,0.3,1.2,0.9,2,0.7c0.3,0,0.5-0.1,0.7-0.3
		c0.2-0.2,0.3-0.5,0.4-0.8c0.1-0.2,0.1-0.2,0.2-0.5"/>
	<path id="XMLID_22_" class="st11" d="M52.4,105.5c0,0,3.7-5.1,36.4,7.9c0,0-0.6-0.1,9,2.7"/>
	<path id="XMLID_9_" class="st12" d="M110,117.5c4.5,0.2,13.4,0.5,19.7,0.4c0,0,1.3,0,3.4-0.1"/>
	<g id="XMLID_20_">
		<path class="st10" d="M145.5,109.1c-1.1-0.1-2.3,0.1-3.4,0.3c-1.1,0.2-2.2,0.6-3.2,1.2c-1,0.5-1.9,1.2-2.6,2.1
			c-0.8,0.8-1.3,1.8-1.7,2.8l0-0.1c-0.2,0.7-0.4,1.4-0.6,2c-0.3,0.7-0.6,1.3-0.9,1.9c-0.7,1.2-1.7,2.4-3.1,3.1l-0.6-1.5
			c2.3-0.7,4.5-1.6,6.8-2.4l3.3-1.3c1.1-0.4,2.2-0.9,3.1-1.4l-0.1,0.1c0.9-0.9,1.8-1.7,2.7-2.6c0.5-0.4,0.9-0.8,1.4-1.2
			c0.5-0.4,1-0.8,1.6-1.1c0,0,0.1,0,0.1,0c0,0,0,0.1,0,0.1c-0.8,0.9-1.6,1.9-2.3,2.9l-2.3,2.9c0,0-0.1,0.1-0.1,0.1l-0.1,0.1
			c-1.1,0.8-2.2,1.4-3.3,1.9c-1.1,0.5-2.3,1-3.4,1.3c-1.2,0.4-2.3,0.7-3.5,1.1c-1.2,0.3-2.3,0.6-3.5,0.9l0,0c-0.4,0.1-0.9-0.2-1-0.6
			c-0.1-0.4,0.1-0.8,0.5-0.9c1-0.4,1.9-1.3,2.6-2.4c0.3-0.5,0.6-1.1,0.9-1.7c0.3-0.6,0.5-1.2,0.7-1.8l0-0.1l0,0
			c0.6-1.1,1.2-2.1,2.1-3c0.9-0.9,1.9-1.6,3-2c1.1-0.5,2.3-0.8,3.4-1c1.2-0.2,2.4-0.2,3.5-0.1c0.1,0,0.1,0.1,0.1,0.1
			C145.6,109,145.6,109.1,145.5,109.1L145.5,109.1z"/>
	</g>
	<g id="XMLID_18_">
		<path class="st10" d="M112,87.8c-0.6-0.2-1.2-0.4-1.8-0.6c-0.6-0.1-1.2-0.3-1.7-0.3l-0.1,0l-0.2-0.1c-1.9-1.5-3.8-3.1-5.7-4.7
			c-0.9-0.8-1.9-1.6-2.8-2.3c-0.9-0.8-1.9-1.6-2.8-2.1l1.3-0.4c-0.6,0.9-1.1,1.8-1.7,2.7c-0.6,0.9-1.2,1.7-1.9,2.6
			c-0.7,0.8-1.3,1.7-2.1,2.4c-0.4,0.4-0.8,0.8-1.2,1.1c-0.4,0.4-0.9,0.7-1.6,0.9l0.3-0.2c0.1-0.1,0.1-0.3,0-0.4c0-0.1-0.1-0.1,0,0
			c0.1,0.1,0.2,0.2,0.4,0.2c0.4,0.1,0.8,0.2,1.2,0.3l0,0c0.5,0,1,0.1,1.5,0.2c0.3,0,0.5,0.1,0.8,0.1c0.1,0,0.3,0.1,0.4,0.1
			c0.1,0.1,0.2,0.1,0.5,0.2l-0.1-0.1c0.2,0.1,0.4,0.3,0.6,0.4c0.2,0.2,0.3,0.4,0.2,0.6c0-0.2-0.2-0.4-0.4-0.5
			c-0.2-0.1-0.4-0.2-0.6-0.2L94.5,88c0,0-0.1,0-0.2,0c-0.1,0-0.2,0-0.3,0l-0.7,0c-0.5,0-1,0-1.5,0.1l0,0c-0.5,0-0.9,0-1.5-0.1
			c-0.3-0.1-0.5-0.1-0.8-0.3c-0.1-0.1-0.3-0.2-0.5-0.5c-0.1-0.3-0.1-0.7,0.1-1l0.1-0.1l0.2-0.1c0.3-0.1,0.7-0.4,1-0.8
			c0.3-0.3,0.7-0.7,1-1.1c0.6-0.8,1.2-1.6,1.8-2.4l1.7-2.6l1.7-2.6l0.5-0.9l0.8,0.5c1.2,0.8,2.1,1.6,3.1,2.4
			c0.9,0.8,1.8,1.7,2.7,2.5c1.8,1.7,3.5,3.5,5.1,5.3l-0.3-0.1c0.4,0,0.7,0.2,1,0.3c0.3,0.1,0.6,0.3,0.9,0.4
			C111,87.1,111.5,87.5,112,87.8z"/>
	</g>
	<g id="XMLID_146_">
		<path class="st10" d="M107.6,87.9L98,79.2l10.2,7.9c0.2,0.2,0.3,0.5,0.1,0.7S107.8,88.1,107.6,87.9C107.6,88,107.6,88,107.6,87.9z
			"/>
	</g>
	<g id="XMLID_143_">
		<path class="st10" d="M103.7,87.9l-6.3-6.3l7,5.5c0.2,0.2,0.3,0.5,0.1,0.7S103.9,88.1,103.7,87.9
			C103.7,87.9,103.7,87.9,103.7,87.9z"/>
	</g>
	<g id="XMLID_140_">
		<path class="st10" d="M100.2,87.6l-3.9-3.9l4.5,3.1c0.2,0.2,0.3,0.5,0.1,0.7S100.5,87.8,100.2,87.6
			C100.2,87.6,100.2,87.6,100.2,87.6z"/>
	</g>
	<g id="XMLID_137_">
		<path class="st10" d="M97.2,88.1L94.1,85l3.7,2.3c0.2,0.1,0.3,0.5,0.2,0.7C97.9,88.2,97.6,88.3,97.2,88.1
			C97.3,88.1,97.3,88.1,97.2,88.1z"/>
	</g>
	<g id="XMLID_16_">
		<path class="st10" d="M73.5,89.9c-1.8-0.5-3.5-0.9-5.3-1.2c-0.9-0.2-1.7-0.3-2.6-0.4c-0.9-0.1-1.7-0.2-2.6-0.3l0.3,0
			c0,0-0.2,0.1-0.3,0.1c-0.1,0.1-0.3,0.1-0.4,0.2c-0.3,0.2-0.6,0.4-0.8,0.7c-0.3,0.2-0.5,0.5-0.8,0.8c-0.3,0.3-0.5,0.6-0.7,0.9
			l0-0.2c0-0.1,0,0.1,0,0.2c0,0.1,0.1,0.2,0.1,0.3c0.1,0.2,0.2,0.4,0.4,0.6c-0.3,0-0.5-0.1-0.8-0.3c-0.1-0.1-0.3-0.2-0.4-0.3
			c-0.1-0.1-0.2-0.2-0.3-0.5l0,0l0.1-0.2c0.3-0.8,0.6-1.7,1.2-2.4c0.3-0.4,0.6-0.7,1-1c0.2-0.2,0.4-0.3,0.6-0.4
			c0.2-0.1,0.4-0.2,0.8-0.4l0.1,0l0.2,0c0.9,0,1.9,0.1,2.8,0.3c0.9,0.1,1.8,0.4,2.7,0.7c0.9,0.3,1.7,0.7,2.6,1.2
			C72.1,88.6,72.8,89.2,73.5,89.9z"/>
	</g>
	<path id="XMLID_133_" class="st10" d="M141.1,92.1c0-0.1-0.1-0.1-0.1-0.2c0-0.2-0.1-0.4-0.4-0.5c0,0-0.3-0.1-0.4-0.1
		c-0.2-0.1-0.4-0.1-0.6,0c-0.1,0-0.5,0.2-0.6,0.2c-0.3,0.2-0.5,0.4-0.7,0.8c-0.1,0.2-0.2,0.5,0.1,0.6c0.5,0.2,1,0.6,1.6,0.4
		c0.2,0,0.4-0.1,0.5-0.2c0.1-0.1,0.2-0.3,0.3-0.5c0.1-0.1,0.1-0.2,0.1-0.3C141,92.4,141.1,92.2,141.1,92.1z"/>
	<path id="XMLID_132_" class="st10" d="M129.4,92.2C129.4,92.2,129.4,92.2,129.4,92.2c-0.1-0.2-0.1-0.4-0.3-0.4c0,0-0.2-0.1-0.2-0.1
		c-0.1,0-0.2,0-0.4,0c-0.1,0-0.3,0.1-0.4,0.1c-0.2,0.1-0.3,0.3-0.4,0.5c-0.1,0.1-0.1,0.3,0,0.4c0.3,0.1,0.6,0.4,1,0.3
		c0.1,0,0.2,0,0.3-0.1c0.1-0.1,0.1-0.2,0.2-0.3c0-0.1,0.1-0.1,0.1-0.2C129.4,92.4,129.5,92.3,129.4,92.2z"/>
	<path id="XMLID_131_" class="st10" d="M69.3,89.5C69.3,89.5,69.3,89.5,69.3,89.5c-0.1-0.2-0.1-0.4-0.3-0.4c0,0-0.2-0.1-0.2-0.1
		c-0.1,0-0.2,0-0.4,0c-0.1,0-0.3,0.1-0.4,0.1c-0.2,0.1-0.3,0.3-0.4,0.5c-0.1,0.1-0.1,0.3,0,0.4c0.3,0.1,0.6,0.4,1,0.3
		c0.1,0,0.2,0,0.3-0.1c0.1-0.1,0.1-0.2,0.2-0.3c0-0.1,0.1-0.1,0.1-0.2C69.3,89.7,69.4,89.6,69.3,89.5z"/>
	<path id="XMLID_130_" class="st10" d="M63,90.4C63,90.4,63,90.3,63,90.4c0-0.1-0.1-0.2-0.2-0.2c0,0-0.1,0-0.1,0c-0.1,0-0.2,0-0.2,0
		c0,0-0.2,0.1-0.2,0.1c-0.1,0.1-0.2,0.2-0.3,0.3c0,0.1-0.1,0.2,0,0.2c0.2,0.1,0.4,0.2,0.6,0.2c0.1,0,0.1,0,0.2-0.1
		c0.1-0.1,0.1-0.1,0.1-0.2c0-0.1,0-0.1,0-0.1C63,90.5,63,90.4,63,90.4z"/>
	<path id="XMLID_129_" class="st10" d="M65.4,88.8C65.4,88.7,65.4,88.7,65.4,88.8c0-0.1-0.1-0.2-0.1-0.2c0,0-0.1,0-0.1,0
		c-0.1,0-0.1,0-0.2,0c0,0-0.2,0-0.2,0.1c-0.1,0.1-0.1,0.1-0.2,0.2c0,0.1,0,0.1,0,0.2c0.1,0.1,0.3,0.2,0.5,0.1c0.1,0,0.1,0,0.1-0.1
		c0,0,0.1-0.1,0.1-0.2C65.3,88.9,65.3,88.9,65.4,88.8C65.4,88.8,65.4,88.8,65.4,88.8z"/>
	<path id="XMLID_8_" class="st13" d="M143.1,116.5c4.1-0.8,8.7-3.2,13.6-4.4l5.9-1.3c5.7-1.6,10.1-3.8,10.1-3.8
		c6.5-4.7,6.2-5.1,6.2-5.1l-4.3,0.3c-1.1,0.3-6.1,0.8-6.1,0.8c3.4-3.2,9.3-6.3,9.3-6.3c-3.7-6.7-28.4-9.7-28.4-9.7l-6.3-0.5
		c0,0-57-0.4-76.1,5.1c0,0-9.5,0.3-10.7-0.4l-4.1-1.6c0,0-5.4-2.1-8.5-3.8c0,0-17.9-8.3-22.6-8.2c0,0-1,0.1,7.4,17.5
		c0,0,2.2,3.1-1.6,7.8c0,0-7.2,11.5-7.2,15.5c0,0,7.4,1.8,26.6-10.2c0,0,9.5-4,10.7-3.8"/>
	<path id="XMLID_127_" class="st14" d="M173,101.2"/>
	<path id="XMLID_126_" class="st10" d="M133.2,96.7C133.2,96.7,133.2,96.6,133.2,96.7c-0.1-0.2-0.1-0.4-0.3-0.4c0,0-0.2-0.1-0.2-0.1
		c-0.1,0-0.2,0-0.4,0c-0.1,0-0.3,0.1-0.4,0.1c-0.2,0.1-0.3,0.3-0.4,0.5c-0.1,0.1-0.1,0.3,0,0.4c0.3,0.1,0.6,0.4,1,0.3
		c0.1,0,0.2,0,0.3-0.1c0.1-0.1,0.1-0.2,0.2-0.3c0-0.1,0.1-0.1,0.1-0.2C133.1,96.9,133.2,96.7,133.2,96.7z"/>
	<path id="XMLID_125_" class="st10" d="M105.7,93.3C105.7,93.3,105.7,93.2,105.7,93.3c-0.1-0.2-0.1-0.4-0.3-0.4c0,0-0.2-0.1-0.2-0.1
		c-0.1,0-0.2,0-0.4,0c-0.1,0-0.3,0.1-0.4,0.1c-0.2,0.1-0.3,0.3-0.4,0.5c-0.1,0.1-0.1,0.3,0,0.4c0.3,0.1,0.6,0.4,1,0.3
		c0.1,0,0.2,0,0.3-0.1c0.1-0.1,0.1-0.2,0.2-0.3c0-0.1,0.1-0.1,0.1-0.2C105.7,93.5,105.7,93.4,105.7,93.3z"/>
	<path id="XMLID_124_" class="st10" d="M77.5,94.9c0-0.1-0.1-0.1-0.1-0.2c0-0.2-0.1-0.4-0.4-0.5c0,0-0.3-0.1-0.4-0.1
		c-0.2-0.1-0.4-0.1-0.6,0c-0.1,0-0.5,0.2-0.6,0.2c-0.3,0.2-0.5,0.4-0.7,0.8c-0.1,0.2-0.2,0.5,0.1,0.6c0.5,0.2,1,0.6,1.6,0.4
		c0.2,0,0.4-0.1,0.5-0.2c0.1-0.1,0.2-0.3,0.3-0.5c0.1-0.1,0.1-0.2,0.1-0.3C77.4,95.2,77.5,95,77.5,94.9z"/>
	<path id="XMLID_123_" class="st10" d="M80.3,102.1c0-0.1-0.1-0.1-0.1-0.2c0-0.2-0.1-0.4-0.4-0.5c0,0-0.3-0.1-0.4-0.1
		c-0.2-0.1-0.4-0.1-0.6,0c-0.1,0-0.5,0.2-0.6,0.2c-0.3,0.2-0.5,0.4-0.7,0.8c-0.1,0.2-0.2,0.5,0.1,0.6c0.5,0.2,1,0.6,1.6,0.4
		c0.2,0,0.4-0.1,0.5-0.2c0.1-0.1,0.2-0.3,0.3-0.5c0.1-0.1,0.1-0.2,0.1-0.3C80.2,102.5,80.3,102.2,80.3,102.1z"/>
	<path id="XMLID_122_" class="st10" d="M86.2,96.7C86.2,96.7,86.1,96.6,86.2,96.7c-0.1-0.2-0.1-0.4-0.3-0.4c0,0-0.2-0.1-0.2-0.1
		c-0.1,0-0.2,0-0.4,0c-0.1,0-0.3,0.1-0.4,0.1c-0.2,0.1-0.3,0.3-0.4,0.5c-0.1,0.1-0.1,0.3,0,0.4c0.3,0.1,0.6,0.4,1,0.3
		c0.1,0,0.2,0,0.3-0.1c0.1-0.1,0.1-0.2,0.2-0.3c0-0.1,0.1-0.1,0.1-0.2C86.1,96.9,86.2,96.7,86.2,96.7z"/>
	<path id="XMLID_121_" class="st10" d="M97.3,91.6C97.3,91.6,97.2,91.6,97.3,91.6c0-0.2-0.1-0.3-0.2-0.3c0,0-0.1,0-0.2,0
		c-0.1,0-0.2,0-0.3,0c-0.1,0-0.2,0.1-0.3,0.1c-0.1,0.1-0.2,0.2-0.3,0.3C96,91.9,96,92,96.1,92c0.2,0.1,0.4,0.3,0.7,0.2
		c0.1,0,0.2,0,0.2-0.1c0.1-0.1,0.1-0.1,0.1-0.2c0-0.1,0-0.1,0.1-0.1C97.2,91.8,97.3,91.7,97.3,91.6z"/>
	<path id="XMLID_120_" class="st10" d="M114.7,96.1C114.7,96.1,114.7,96.1,114.7,96.1c0-0.2-0.1-0.3-0.2-0.3c0,0-0.1,0-0.2,0
		c-0.1,0-0.2,0-0.3,0c-0.1,0-0.2,0.1-0.3,0.1c-0.1,0.1-0.2,0.2-0.3,0.3c-0.1,0.1-0.1,0.2,0,0.3c0.2,0.1,0.4,0.3,0.7,0.2
		c0.1,0,0.2,0,0.2-0.1c0.1-0.1,0.1-0.1,0.1-0.2c0-0.1,0-0.1,0.1-0.1C114.6,96.2,114.7,96.1,114.7,96.1z"/>
	<path id="XMLID_119_" class="st10" d="M139.3,97.4C139.3,97.4,139.3,97.3,139.3,97.4c0-0.2-0.1-0.3-0.2-0.3c0,0-0.1,0-0.2,0
		c-0.1,0-0.2,0-0.3,0c-0.1,0-0.2,0.1-0.3,0.1c-0.1,0.1-0.2,0.2-0.3,0.3c-0.1,0.1-0.1,0.2,0,0.3c0.2,0.1,0.4,0.3,0.7,0.2
		c0.1,0,0.2,0,0.2-0.1c0.1-0.1,0.1-0.1,0.1-0.2c0-0.1,0-0.1,0.1-0.1C139.2,97.5,139.3,97.4,139.3,97.4z"/>
	<path id="XMLID_118_" class="st10" d="M172,100.7c0,0-3.4,3.4-4.6,2.8c0,0,6,3.2,12.4-2.2L172,100.7z"/>
	<g id="XMLID_115_">
		<path class="st10" d="M171.6,97.7c-1.2,0.7-2.4,1.4-3.6,2.1c-1.2,0.7-2.3,1.5-3.3,2.4c-0.5,0.4-0.9,1.1-0.7,1.2
			c0.1,0.3,0.7,0.4,1.3,0.2c1.2-0.3,2.5-0.9,3.8-1.5l0.1,0.1c-1,1-2.1,1.9-3.6,2.4c-0.4,0.1-0.8,0.2-1.2,0.1c-0.4-0.1-1-0.4-1.2-0.9
			c-0.1-0.2-0.2-0.6-0.1-0.8c0.1-0.3,0.2-0.4,0.3-0.6c0.2-0.3,0.5-0.6,0.8-0.8c1.1-0.9,2.3-1.6,3.6-2.3
			C169,98.7,170.2,98.1,171.6,97.7L171.6,97.7z"/>
	</g>
	<g id="XMLID_112_">
		<path class="st10" d="M152.1,91.5c-1.2,1.5-2.2,3.1-3,4.9c-0.8,1.7-1.4,3.5-1.4,5.3c-0.1,1.8,0.4,3.5,1.5,4.9
			c1,1.4,2.3,2.5,3.8,3.6l0.2,0.2l0,0.1c0.1,0.2,0.2,0.5,0.4,0.7c0.2,0.2,0.3,0.4,0.6,0.6c0.2,0.2,0.4,0.3,0.7,0.4
			c0.3,0.1,0.6,0.2,0.9,0.2l0,0.2c-0.3,0.1-0.7,0.3-1,0.3c-0.4,0-0.8-0.1-1.1-0.2c-0.4-0.1-0.7-0.3-1-0.5c-0.3-0.2-0.6-0.5-0.8-0.8
			l0.3,0.3c-1.8-0.8-3.6-2.1-4.7-3.9c-1.1-1.8-1.5-4.1-1.2-6.1c0.3-2,1-3.9,2-5.6c1-1.7,2.2-3.2,3.6-4.6L152.1,91.5z"/>
	</g>
	<g id="XMLID_109_">
		<path class="st10" d="M154.1,95.7c-0.3,1-0.5,2-0.6,3c-0.1,1-0.1,2,0,3c0.2,1,0.5,1.9,0.9,2.8c0.5,0.9,1.2,1.5,1.9,2.1l-0.2-0.1
			c0.7,0.2,1.4,0.4,2.1,0.6c0.4,0.1,0.7,0.1,1,0.1c0.3,0,0.7-0.1,0.5-0.1l-0.4,0.7c0-0.5,0-1-0.1-1.5c0-0.5-0.1-1-0.2-1.5
			c-0.1-1-0.5-1.8-1-2.3l-0.4-0.3l0-0.2c-0.1-0.4-0.1-0.8-0.1-1.2c0-0.4,0-0.8,0.1-1.1c0.1-0.7,0.3-1.5,0.7-2.2l0.2,0.1
			c-0.1,0.7,0,1.4,0.2,2.1c0.1,0.3,0.1,0.7,0.2,1c0.1,0.3,0.2,0.7,0.3,1l-0.4-0.5c0.7,0.3,1.2,0.9,1.6,1.5c0.4,0.6,0.6,1.2,0.7,1.8
			c0.1,0.6,0.2,1.2,0.2,1.8c0,0.6,0,1.2-0.1,1.8l-0.1,0.5l-0.4,0.2c-0.4,0.2-0.7,0.3-1,0.3c-0.3,0-0.5,0-0.7-0.1
			c-0.4-0.1-0.9-0.2-1.3-0.3c-0.8-0.2-1.5-0.5-2.3-0.8l-0.1-0.1l-0.1-0.1c-0.8-0.8-1.6-1.7-2-2.7c-0.5-1-0.7-2.1-0.8-3.2
			c0-2.2,0.4-4.3,1.3-6.2L154.1,95.7z"/>
	</g>
	<path id="XMLID_108_" class="st15" d="M28.5,100.9"/>
	<path id="XMLID_107_" class="st15" d="M25.2,107.3"/>
	<g id="XMLID_104_">
		<path class="st10" d="M168,97.7c-0.4,0.4-0.9,0.6-1.5,0.7c-0.5,0.1-1.1,0-1.6-0.1c-0.5-0.1-1.1-0.3-1.5-0.7
			c-0.4-0.4-0.7-0.9-0.8-1.4l0.1,0c0.5,0.9,1.4,1.3,2.4,1.3c0.5,0,0.9-0.1,1.4-0.1C166.9,97.4,167.4,97.5,168,97.7L168,97.7z"/>
	</g>
	<g id="XMLID_13_">
		<path class="st10" d="M111.5,112.5c-0.2,1.4-0.4,2.8-0.8,4.2c-0.4,1.4-0.8,2.7-1.4,4.1c-0.5,1.3-1.3,2.6-2.1,3.8
			c-0.9,1.2-2,2.4-3.7,2.9l-0.6,0.2l-0.4-0.4c-0.9-0.9-1.5-1.8-2.2-2.8c-0.6-1-1.2-2-1.6-3.1c-0.4-1.1-0.8-2.2-1.1-3.3
			c-0.3-1.1-0.5-2.3-0.6-3.4l0-0.1l0,0c0.1-0.3,0.2-0.6,0.3-0.9c0.1-0.3,0.3-0.5,0.5-0.8c0.2-0.2,0.5-0.4,0.8-0.6
			c0.3-0.1,0.6-0.2,0.9-0.2l0.1,0l0.1,0c0.6,0.2,1.2,0.4,1.8,0.5c0.6,0.1,1.3,0.2,1.9-0.1c-0.5,0.4-1.2,0.6-1.9,0.6
			c-0.7,0-1.3-0.1-2-0.2l0.2,0c-0.4,0.1-0.7,0.3-0.9,0.6c-0.1,0.2-0.2,0.3-0.2,0.5c-0.1,0.2-0.1,0.4-0.1,0.6l0-0.2
			c0.5,2.1,1.1,4.2,2.1,6.1c0.5,1,1,1.9,1.6,2.8c0.6,0.9,1.2,1.8,1.9,2.5l-1-0.2c1.1-0.3,2-1.2,2.9-2.2c0.8-1,1.6-2.1,2.2-3.3
			c0.7-1.2,1.3-2.4,1.9-3.7C110.5,115.1,111,113.8,111.5,112.5z"/>
	</g>
	<path id="XMLID_102_" class="st16" d="M101.4,116.6"/>
	<g id="XMLID_99_">
		<path class="st10" d="M101.3,124.3c1.1-0.9,2.2-1.9,3.1-2.9c0.5-0.5,0.9-1.1,1.4-1.6c0.4-0.6,0.8-1.2,1-1.9
			c-0.1,0.7-0.5,1.4-0.8,2c-0.3,0.6-0.8,1.2-1.2,1.8c-0.9,1.2-1.8,2.3-2.8,3.3c-0.2,0.2-0.5,0.2-0.7,0
			C101.1,124.9,101.1,124.6,101.3,124.3C101.3,124.3,101.3,124.3,101.3,124.3L101.3,124.3z"/>
	</g>
	<g id="XMLID_96_">
		<path class="st10" d="M99.2,119.2c0.4,0.1,0.9,0.1,1.4,0c0.5-0.1,1-0.3,1.5-0.5c0.5-0.2,0.9-0.6,1.3-0.9c0.4-0.4,0.8-0.8,1.2-1.2
			c-0.3,0.5-0.6,0.9-1,1.4c-0.4,0.4-0.8,0.8-1.3,1.2c-0.5,0.3-1,0.6-1.6,0.8c-0.6,0.2-1.1,0.3-1.9,0.2L99.2,119.2z"/>
	</g>
	<g id="XMLID_10_">
		<path class="st10" d="M79.3,109.7c-0.8,1.8-1.9,3.4-3.1,4.9c-0.6,0.8-1.3,1.5-2,2.2c-0.7,0.7-1.5,1.3-2.3,1.9l0.2-0.1
			c-0.5,0.5-1,1-1.6,1.5c-0.3,0.2-0.6,0.5-1,0.7c-0.2,0.1-0.4,0.2-0.6,0.3c-0.3,0.1-0.5,0.2-1.1,0.1c-0.3-0.1-0.6-0.4-0.8-0.6
			c-0.1-0.2-0.2-0.4-0.2-0.6c-0.1-0.3-0.1-0.5-0.1-0.7c0-0.4,0-0.8,0.1-1.1l0.2-2l0,0.4c-0.2-0.8-0.6-1.6-0.9-2.3
			c-0.4-0.8-0.8-1.5-1.2-2.2c-0.5-0.7-1-1.4-1.5-2c-0.1-0.1-0.1-0.1-0.2-0.2c-0.1-0.1-0.2-0.2-0.3-0.3c-0.2-0.2-0.3-0.5-0.4-0.8
			c-0.1-0.3,0-0.8,0.2-1.1c0.2-0.3,0.5-0.4,0.8-0.5l0.4,0c-0.1,0-0.1,0-0.1,0c0,0,0,0,0,0l0,0l0.1,0l0.2,0l0.5,0l1-0.1l2.1-0.2
			c-0.6,0.3-1.3,0.5-2,0.7c-0.3,0.1-0.7,0.2-1,0.3l-0.5,0.1l-0.3,0.1l-0.1,0l-0.1,0l-0.1,0c0,0,0,0-0.2,0l0.4,0
			c-0.1,0.1-0.3,0.2-0.3,0.3c0,0.1,0,0.1,0,0.1c0,0.1,0.1,0.2,0.3,0.3c0.1,0.1,0.1,0.1,0.2,0.2l0.3,0.2c0.7,0.6,1.4,1.3,2,2.1
			c0.6,0.8,1.1,1.5,1.5,2.4c0.4,0.8,0.8,1.7,1.1,2.6L69,116l0,0.2c0,0.7-0.1,1.4-0.2,2.1c0,0.3-0.1,0.7-0.1,0.9c0,0.1,0,0.3,0,0.3
			c0,0,0,0,0-0.1c0-0.1-0.2-0.2-0.4-0.3c-0.2,0-0.1,0-0.1,0c0.1,0,0.2-0.1,0.3-0.1c0.2-0.1,0.5-0.3,0.7-0.5c0.5-0.4,1-0.8,1.4-1.2
			l0.1-0.1l0.1,0C74,115.2,76.7,112.5,79.3,109.7z"/>
	</g>
	<g id="XMLID_90_">
		<polygon class="st10" points="64.3,109.1 67.6,109 64.9,111 		"/>
	</g>
	<path id="XMLID_89_" class="st17" d="M66.9,113.2"/>
	<g id="XMLID_82_">
		<polygon class="st10" points="66.5,112.3 72.1,110.8 67.4,114.1 		"/>
	</g>
	<path id="XMLID_79_" class="st17" d="M67.6,116.1"/>
	<g id="XMLID_76_">
		<polygon class="st10" points="67.3,115.3 74.5,112 68.3,117 		"/>
	</g>
	<g id="XMLID_73_">
		<path class="st10" d="M53.1,104.6c1.3-0.6,2.6-1.1,4-1.6c1.3-0.5,2.7-0.9,4.1-1.2c1.4-0.3,2.8-0.6,4.2-0.7
			c1.4-0.1,2.8-0.2,4.2,0.1c-1.4-0.1-2.8,0.1-4.1,0.4c-1.3,0.3-2.7,0.7-4,1.2c-1.3,0.5-2.6,1-3.8,1.6c-1.2,0.6-2.5,1.2-3.6,1.9
			L53.1,104.6z"/>
	</g>
	<g id="XMLID_69_">
		<path class="st10" d="M71.2,104.5l15.2,2.6c5.1,0.8,10.2,1.7,15.3,2.3c5.1,0.7,10.2,1.4,15.3,1.8c2.6,0.2,5.1,0.4,7.7,0.4
			c2.6,0,5.2-0.1,7.6-0.8c-2.4,0.9-5.1,1.1-7.6,1.3c-2.6,0.1-5.2,0-7.8-0.1c-5.2-0.3-10.3-0.9-15.4-1.6c-5.1-0.8-10.2-1.6-15.3-2.6
			C81.2,106.9,76.2,105.8,71.2,104.5z"/>
	</g>
	<g id="XMLID_6_">
		<path class="st10" d="M133.8,114.5c0.9-0.6,1.8-1,2.7-1.4c0.9-0.4,1.8-0.8,2.8-1.1c1.9-0.6,4-0.8,5.9-0.2
			c-1.9-0.3-3.9,0.2-5.6,0.9c-0.9,0.4-1.7,0.8-2.5,1.3c-0.8,0.5-1.6,1.1-2.3,1.6l0,0c-0.3,0.3-0.8,0.2-1.1-0.1
			S133.4,114.9,133.8,114.5C133.8,114.6,133.8,114.6,133.8,114.5z"/>
	</g>
	<g id="XMLID_3_">
		<path class="st10" d="M132,118.4c1.5-0.7,3-1.3,4.5-1.9c0.8-0.3,1.5-0.6,2.3-0.9c0.8-0.2,1.6-0.6,2.4-0.5c-0.8,0-1.5,0.5-2.2,0.8
			c-0.7,0.4-1.4,0.8-2.1,1.2c-1.4,0.8-2.7,1.7-4.1,2.6l0,0c-0.3,0.2-0.8,0.1-1-0.2s-0.1-0.8,0.2-1
			C131.9,118.4,131.9,118.4,132,118.4z"/>
	</g>
	<path id="XMLID_2_" class="st10" d="M51.1,103.2c0-0.1-0.1-0.1-0.1-0.2c0-0.2-0.1-0.4-0.4-0.5c0,0-0.3-0.1-0.4-0.1
		c-0.2-0.1-0.4-0.1-0.6,0c-0.1,0-0.5,0.2-0.6,0.2c-0.3,0.2-0.5,0.4-0.7,0.8c-0.1,0.2-0.2,0.5,0.1,0.6c0.5,0.2,1,0.6,1.6,0.4
		c0.2,0,0.4-0.1,0.5-0.2c0.1-0.1,0.2-0.3,0.3-0.5c0.1-0.1,0.1-0.2,0.1-0.3C51,103.5,51.1,103.3,51.1,103.2z"/>
	<g id="XMLID_303_">
		<path class="st10" d="M162.7,89.6c0.1,0.7,0,1.1-0.2,1.5c-0.1,0.4-0.6,0.5-0.8,0.8c-0.3,0.3-0.5,0.6-0.7,0.9
			c-0.2,0.3-0.4,0.6-0.5,1.1l-0.2,0c-0.2-0.4-0.3-0.9-0.3-1.4c0-0.5,0.2-1,0.3-1.4c0.2-0.4,0.2-1,0.6-1.2c0.4-0.3,0.9-0.5,1.6-0.4
			L162.7,89.6z"/>
	</g>
	<path id="XMLID_113_" class="st10" d="M157.5,91.5C157.5,91.4,157.5,91.4,157.5,91.5c-0.1-0.2-0.1-0.4-0.3-0.4c0,0-0.2-0.1-0.2-0.1
		c-0.1,0-0.2,0-0.4,0c-0.1,0-0.3,0.1-0.4,0.1c-0.2,0.1-0.3,0.3-0.4,0.5c-0.1,0.1-0.1,0.3,0,0.4c0.3,0.1,0.6,0.4,1,0.3
		c0.1,0,0.2,0,0.3-0.1c0.1-0.1,0.1-0.2,0.2-0.3c0-0.1,0.1-0.1,0.1-0.2C157.5,91.7,157.6,91.5,157.5,91.5z"/>
	<g id="XMLID_160_">
		<path class="st10" d="M63.1,90.6c-1.5,0.9-3.2,1.5-4.8,2c-1.7,0.5-3.4,0.7-5.1,0.9c-1.7,0.2-3.5,0.4-5.2,0.4
			c-1.7,0-3.5-0.1-5.2-0.6l0-0.1c1.7,0.3,3.4,0.2,5.1,0c1.7-0.2,3.4-0.5,5-0.8c1.7-0.4,3.3-0.9,5-1.2c1.7-0.3,3.4-0.6,5.1-0.7
			L63.1,90.6z"/>
	</g>
	<path id="XMLID_4_" class="st10" d="M57.7,96.1C57.6,96.1,57.6,96,57.7,96.1c-0.1-0.2-0.1-0.4-0.3-0.4c0,0-0.2-0.1-0.2-0.1
		c-0.1,0-0.2,0-0.4,0c-0.1,0-0.3,0.1-0.4,0.1c-0.2,0.1-0.3,0.3-0.4,0.5c-0.1,0.1-0.1,0.3,0,0.4c0.3,0.1,0.6,0.4,1,0.3
		c0.1,0,0.2,0,0.3-0.1c0.1-0.1,0.1-0.2,0.2-0.3c0-0.1,0.1-0.1,0.1-0.2C57.6,96.3,57.7,96.2,57.7,96.1z"/>
</g>
</svg>
